<svg xmlns="http://www.w3.org/2000/svg" class="phone" width="394" height="806" viewBox="0 0 104.36777 213.28058" data-units-per-mm="1.32568" xmlns:c2pa="http://c2pa.org/manifest"><metadata><c2pa:manifest>AAAWgmp1bWIAAAAeanVtZGMycGEAEQAQgAAAqgA4m3EDYzJwYQAAABZcanVtYgAAAEdqdW1kYzJtYQARABCAAACqADibcQN1cm46YzJwYTo5YzgwMzQxMC04MzE5LTRjNGItODY0Yy0zMzY3YWU2ZTQwMjEAAAADl2p1bWIAAAApanVtZGMyYXMAEQAQgAAAqgA4m3EDYzJwYS5hc3NlcnRpb25zAAAAALxqdW1iAAAARGp1bWRjYm9yABEAEIAAAKoAOJtxE2MycGEuaW5ncmVkaWVudC52MwAAAAAYYzJzaHf6mpo00e84vWq/VUNAcgkAAABwY2JvcqNpZGM6Zm9ybWF0bWltYWdlL3N2Zyt4bWxqaW5zdGFuY2VJRHgseG1wOmlpZDpiZTJhMGI3Zi01NTRmLTRlN2EtYTk4Mi1iMzhkOTNiZjM4YzFscmVsYXRpb25zaGlwaHBhcmVudE9mAAAB4mp1bWIAAABBanVtZGNib3IAEQAQgAAAqgA4m3ETYzJwYS5hY3Rpb25zLnYyAAAAABhjMnNoKZwnrDQ9NP+4LNynhfpJoAAAAZljYm9yomdhY3Rpb25zgqJmYWN0aW9ua2MycGEub3BlbmVkanBhcmFtZXRlcnOha2luZ3JlZGllbnRzgaJjdXJseC1zZWxmI2p1bWJmPWMycGEuYXNzZXJ0aW9ucy9jMnBhLmluZ3JlZGllbnQudjNkaGFzaFggD996i9i3xRzYXTgYs6UCSe8gDCuf1TnEgiq5vPad6VKkZmFjdGlvbngdY29tLmFudGhyb3BpYy5jbGF1ZGUucHJvdmlkZWRqcGFyYW1ldGVyc6F4H2NvbS5hbnRocm9waWMub3JpZ2luLWNvbmZpZGVuY2VndW5rbm93bmtkZXNjcmlwdGlvbnhmQ2xhdWRlIHByb3ZpZGVkIHRoaXMgZmlsZSBhdCB0aGUgcmVxdWVzdCBvZiBhIHVzZXIgYW5kIG1heSBoYXZlIGNyZWF0ZWQgb3IgbW9kaWZpZWQgdGhlIGZpbGUgY29udGVudHMubXNvZnR3YXJlQWdlbnShZG5hbWVmQ2xhdWRlcmFsbEFjdGlvbnNJbmNsdWRlZPUAAADIanVtYgAAAEBqdW1kY2JvcgARABCAAACqADibcRNjMnBhLmhhc2guZGF0YQAAAAAYYzJzaE3PAUcpjzgawaXgKoO0BRsAAACAY2JvcqVjYWxnZnNoYTI1NmNwYWRNAAAAAAAAAAAAAAAAAGRoYXNoWCAPO0qFwX1e2825YtjYhp+IB8VOijlUj9zYWjiZWEQrNmRuYW1lbmp1bWJmIG1hbmlmZXN0amV4Y2x1c2lvbnOBomVzdGFydBjMZmxlbmd0aBkeBAAAAj5qdW1iAAAAJ2p1bWRjMmNsABEAEIAAAKoAOJtxA2MycGEuY2xhaW0udjIAAAACD2Nib3KlY2FsZ2ZzaGEyNTZpc2lnbmF0dXJleE1zZWxmI2p1bWJmPS9jMnBhL3VybjpjMnBhOjljODAzNDEwLTgzMTktNGM0Yi04NjRjLTMzNjdhZTZlNDAyMS9jMnBhLnNpZ25hdHVyZWppbnN0YW5jZUlEeCx4bXA6aWlkOmJhYzdmZThjLWUzZDctNDM5Ny05MzI0LTI5MTIxNjY4ZDYwY3JjcmVhdGVkX2Fzc2VydGlvbnODomN1cmx4LXNlbGYjanVtYmY9YzJwYS5hc3NlcnRpb25zL2MycGEuaW5ncmVkaWVudC52M2RoYXNoWCAP33qL2LfFHNhdOBizpQJJ7yAMK5/VOcSCKrm89p3pUqJjdXJseCpzZWxmI2p1bWJmPWMycGEuYXNzZXJ0aW9ucy9jMnBhLmFjdGlvbnMudjJkaGFzaFggcfOIftZCZlBkgPs66PM33utjajzfKFEQaXoajIiTa3OiY3VybHgpc2VsZiNqdW1iZj1jMnBhLmFzc2VydGlvbnMvYzJwYS5oYXNoLmRhdGFkaGFzaFggJLL2vrQnP6VdRtiX3lRtJEfvWNvGVW0EZ1+2RpRghVB0Y2xhaW1fZ2VuZXJhdG9yX2luZm+jZG5hbWVvQW50aHJvcGljIEZpbGVzZ3ZlcnNpb25lMS4wLjBrc3BlY1ZlcnNpb25lMi40LjAAABA4anVtYgAAAChqdW1kYzJjcwARABCAAACqADibcQNjMnBhLnNpZ25hdHVyZQAAABAIY2JvctKEWQISogEmGCFZAgowggIGMIIBjaADAgECAhRA5aAK7sI50L64g/oGQgU9Z1UTADAKBggqhkjOPQQDAzBJMRcwFQYDVQQKEw5BbnRocm9waWMsIFBCQzEuMCwGA1UEAxMlQW50aHJvcGljIENvbnRlbnQgQ3JlZGVudGlhbHMgUm9vdCBDQTAeFw0yNjA4MDcxODQzNTZaFw0yODA4MDYxOTQzNTZaMEQxFzAVBgNVBAoTDkFudGhyb3BpYywgUEJDMSkwJwYDVQQDEyBBbnRocm9waWMgQ2xhdWRlIENvbnRlbnQgU2lnbmluZzBZMBMGByqGSM49AgEGCCqGSM49AwEHA0IABJh6CmvLUBgFFNU0vUKlOVtE6djd17L5SuwX0LemFisBM3dkd/3cyjxFA3Qo5S46fX0/ihY0VZ7mfb9KF703t5OjWDBWMA4GA1UdDwEB/wQEAwIHgDAVBgNVHSUEDjAMBgorBgEEAYPoXgIBMAwGA1UdEwEB/wQCMAAwHwYDVR0jBBgwFoAUzlHiBIFOZFsj+OPEz5o+nMHXXMIwCgYIKoZIzj0EAwMDZwAwZAIwMXMdFJ4BetLLVY7ORuE9noqbbAZOZn/aArXyTwFAZfKrPzxF2vPoJNf1+UCdg1XGAjBwX1zd9WGqYkqmL5SFqw1QySjr1zJfpJM9+1rdDwSPLMOPOjKuiXjoU/pUUeG9RwmhY3BhZFkNngAAAAAAAAAAAAAAAAAAAAAAAAAAAAAAAAAAAAAAAAAAAAAAAAAAAAAAAAAAAAAAAAAAAAAAAAAAAAAAAAAAAAAAAAAAAAAAAAAAAAAAAAAAAAAAAAAAAAAAAAAAAAAAAAAAAAAAAAAAAAAAAAAAAAAAAAAAAAAAAAAAAAAAAAAAAAAAAAAAAAAAAAAAAAAAAAAAAAAAAAAAAAAAAAAAAAAAAAAAAAAAAAAAAAAAAAAAAAAAAAAAAAAAAAAAAAAAAAAAAAAAAAAAAAAAAAAAAAAAAAAAAAAAAAAAAAAAAAAAAAAAAAAAAAAAAAAAAAAAAAAAAAAAAAAAAAAAAAAAAAAAAAAAAAAAAAAAAAAAAAAAAAAAAAAAAAAAAAAAAAAAAAAAAAAAAAAAAAAAAAAAAAAAAAAAAAAAAAAAAAAAAAAAAAAAAAAAAAAAAAAAAAAAAAAAAAAAAAAAAAAAAAAAAAAAAAAAAAAAAAAAAAAAAAAAAAAAAAAAAAAAAAAAAAAAAAAAAAAAAAAAAAAAAAAAAAAAAAAAAAAAAAAAAAAAAAAAAAAAAAAAAAAAAAAAAAAAAAAAAAAAAAAAAAAAAAAAAAAAAAAAAAAAAAAAAAAAAAAAAAAAAAAAAAAAAAAAAAAAAAAAAAAAAAAAAAAAAAAAAAAAAAAAAAAAAAAAAAAAAAAAAAAAAAAAAAAAAAAAAAAAAAAAAAAAAAAAAAAAAAAAAAAAAAAAAAAAAAAAAAAAAAAAAAAAAAAAAAAAAAAAAAAAAAAAAAAAAAAAAAAAAAAAAAAAAAAAAAAAAAAAAAAAAAAAAAAAAAAAAAAAAAAAAAAAAAAAAAAAAAAAAAAAAAAAAAAAAAAAAAAAAAAAAAAAAAAAAAAAAAAAAAAAAAAAAAAAAAAAAAAAAAAAAAAAAAAAAAAAAAAAAAAAAAAAAAAAAAAAAAAAAAAAAAAAAAAAAAAAAAAAAAAAAAAAAAAAAAAAAAAAAAAAAAAAAAAAAAAAAAAAAAAAAAAAAAAAAAAAAAAAAAAAAAAAAAAAAAAAAAAAAAAAAAAAAAAAAAAAAAAAAAAAAAAAAAAAAAAAAAAAAAAAAAAAAAAAAAAAAAAAAAAAAAAAAAAAAAAAAAAAAAAAAAAAAAAAAAAAAAAAAAAAAAAAAAAAAAAAAAAAAAAAAAAAAAAAAAAAAAAAAAAAAAAAAAAAAAAAAAAAAAAAAAAAAAAAAAAAAAAAAAAAAAAAAAAAAAAAAAAAAAAAAAAAAAAAAAAAAAAAAAAAAAAAAAAAAAAAAAAAAAAAAAAAAAAAAAAAAAAAAAAAAAAAAAAAAAAAAAAAAAAAAAAAAAAAAAAAAAAAAAAAAAAAAAAAAAAAAAAAAAAAAAAAAAAAAAAAAAAAAAAAAAAAAAAAAAAAAAAAAAAAAAAAAAAAAAAAAAAAAAAAAAAAAAAAAAAAAAAAAAAAAAAAAAAAAAAAAAAAAAAAAAAAAAAAAAAAAAAAAAAAAAAAAAAAAAAAAAAAAAAAAAAAAAAAAAAAAAAAAAAAAAAAAAAAAAAAAAAAAAAAAAAAAAAAAAAAAAAAAAAAAAAAAAAAAAAAAAAAAAAAAAAAAAAAAAAAAAAAAAAAAAAAAAAAAAAAAAAAAAAAAAAAAAAAAAAAAAAAAAAAAAAAAAAAAAAAAAAAAAAAAAAAAAAAAAAAAAAAAAAAAAAAAAAAAAAAAAAAAAAAAAAAAAAAAAAAAAAAAAAAAAAAAAAAAAAAAAAAAAAAAAAAAAAAAAAAAAAAAAAAAAAAAAAAAAAAAAAAAAAAAAAAAAAAAAAAAAAAAAAAAAAAAAAAAAAAAAAAAAAAAAAAAAAAAAAAAAAAAAAAAAAAAAAAAAAAAAAAAAAAAAAAAAAAAAAAAAAAAAAAAAAAAAAAAAAAAAAAAAAAAAAAAAAAAAAAAAAAAAAAAAAAAAAAAAAAAAAAAAAAAAAAAAAAAAAAAAAAAAAAAAAAAAAAAAAAAAAAAAAAAAAAAAAAAAAAAAAAAAAAAAAAAAAAAAAAAAAAAAAAAAAAAAAAAAAAAAAAAAAAAAAAAAAAAAAAAAAAAAAAAAAAAAAAAAAAAAAAAAAAAAAAAAAAAAAAAAAAAAAAAAAAAAAAAAAAAAAAAAAAAAAAAAAAAAAAAAAAAAAAAAAAAAAAAAAAAAAAAAAAAAAAAAAAAAAAAAAAAAAAAAAAAAAAAAAAAAAAAAAAAAAAAAAAAAAAAAAAAAAAAAAAAAAAAAAAAAAAAAAAAAAAAAAAAAAAAAAAAAAAAAAAAAAAAAAAAAAAAAAAAAAAAAAAAAAAAAAAAAAAAAAAAAAAAAAAAAAAAAAAAAAAAAAAAAAAAAAAAAAAAAAAAAAAAAAAAAAAAAAAAAAAAAAAAAAAAAAAAAAAAAAAAAAAAAAAAAAAAAAAAAAAAAAAAAAAAAAAAAAAAAAAAAAAAAAAAAAAAAAAAAAAAAAAAAAAAAAAAAAAAAAAAAAAAAAAAAAAAAAAAAAAAAAAAAAAAAAAAAAAAAAAAAAAAAAAAAAAAAAAAAAAAAAAAAAAAAAAAAAAAAAAAAAAAAAAAAAAAAAAAAAAAAAAAAAAAAAAAAAAAAAAAAAAAAAAAAAAAAAAAAAAAAAAAAAAAAAAAAAAAAAAAAAAAAAAAAAAAAAAAAAAAAAAAAAAAAAAAAAAAAAAAAAAAAAAAAAAAAAAAAAAAAAAAAAAAAAAAAAAAAAAAAAAAAAAAAAAAAAAAAAAAAAAAAAAAAAAAAAAAAAAAAAAAAAAAAAAAAAAAAAAAAAAAAAAAAAAAAAAAAAAAAAAAAAAAAAAAAAAAAAAAAAAAAAAAAAAAAAAAAAAAAAAAAAAAAAAAAAAAAAAAAAAAAAAAAAAAAAAAAAAAAAAAAAAAAAAAAAAAAAAAAAAAAAAAAAAAAAAAAAAAAAAAAAAAAAAAAAAAAAAAAAAAAAAAAAAAAAAAAAAAAAAAAAAAAAAAAAAAAAAAAAAAAAAAAAAAAAAAAAAAAAAAAAAAAAAAAAAAAAAAAAAAAAAAAAAAAAAAAAAAAAAAAAAAAAAAAAAAAAAAAAAAAAAAAAAAAAAAAAAAAAAAAAAAAAAAAAAAAAAAAAAAAAAAAAAAAAAAAAAAAAAAAAAAAAAAAAAAAAAAAAAAAAAAAAAAAAAAAAAAAAAAAAAAAAAAAAAAAAAAAAAAAAAAAAAAAAAAAAAAAAAAAAAAAAAAAAAAAAAAAAAAAAAAAAAAAAAAAAAAAAAAAAAAAAAAAAAAAAAAAAAAAAAAAAAAAAAAAAAAAAAAAAAAAAAAAAAAAAAAAAAAAAAAAAAAAAAAAAAAAAAAAAAAAAAAAAAAAAAAAAAAAAAAAAAAAAAAAAAAAAAAAAAAAAAAAAAAAAAAAAAAAAAAAAAAAAAAAAAAAAAAAAAAAAAAAAAAAAAAAAAAAAAAAAAAAAAAAAAAAAAAAAAAAAAAAAAAAAAAAAAAAAAAAAAAAAAAAAAAAAAAAAAAAAAAAAAAAAAAAAAAAAAAAAAAAAAAAAAAAAAAAAAAAAAAAAAAAAAAAAAAAAAAAAAAAAAAAAAAAAAAAAAAAAAAAAAAAAAAAAAAAAAAAAAAAAAAAAAAAAAAAAAAAAAAAAAAAAAAAAAAAAAAAAAAAAAAAAAAAAAAAAAAAAAAAAAAAAAAAAAAAAAAAAAAAAAAAAAAAAAAAAAAAAAAAAAAAAAAAAAAAAAAAAAAAAAAAAAAAAAAAAAAAAAAAAAAAAAAAAAAAAAAAAAAAAAAAAAAAAAAAAAAAAAAAAAAAAAAAAAAAAAAAAAAAAAAAAAAAAAAAAAAAAAAAAAAAAAAAAAAAAAAAAAAAAAAAAAAAAAAAAAAAAAAAAAAAAAAAAAAAAAAAAAAAAAAAAAAAAAAAAAAAAAAAAAAAAAAAAAAAAAAAAAAAAAAAAAAAAAAAAAAAAAAAAAAAAAAAAAAAAAAAAAAAAAAAAAAAAAAAAAAAAAAAAAAAAAAAAAAAAAAAAAAAAAAAAAAAAAAAAAAAAAAAAAAAAAAAAAAAAAAAAAAAAAAAAAAAAAAAAAAAAAAAAAAAAAAAAAAAAAAAAAAAAAAAAAAAAAAAAAAAAAAAAAAAAAAAAAAAAAAAAAAAAAAAAAAAAAAAAAAAAAAAAAAAAAAAAAAAAAAAAAAAAAAAAAAAAAAAAAAAAAAAAAAAAAAAAAAAAAAAAAAAAAAAAAAAAAAAAAAAAAAAAAAAAAAAAAAAAAAAAAAAAAAAAAAAAAAAAAAAAAAAAAAAAAAAAAAAAAAAAAAAAAAAAAAAAAAAAAAAAAAAAAAAAAAAAAAAAAAAAAAAAAAAAAAAAAAAAAAAAAAAAAAAAAAAAAAAAAAAAAAAAAAAAAAAAAAAAAAAAAAAAAAAAAAAAAAAAAAAAAAAAAAAAAAAAAAAAAAAAAAAAAAAAAAAAAAAAAAAAAAAAAAAAAAAAAAAAAAAAAAAAAAAAAAAAAAAAAAAAAAAAAAAAAAAAAAAAAAAAAAAAAAAAAAAAAAAAAAAAAAAAAAAAAAAAAAAAAAAAAAAAAAAAAAAAAAAAAAAAAAAAAAAAAAAAAAAAAAAAAAAAAAAAAAAAAAAAAAAAAAAAAAAAAAAAAAAAAAAAAAAAAAAAAAAAAAAAAAAAAAAAAAAAAAAAAAAAAAAAAAAAAAPZYQM94Zpl87eTyvXUb/vElQfvKa6wOo0dTkQrBTOdf+2OUmny87otuIjkdzJgBcyfArPlPzvPWWrohqfgIZveH+Qc=</c2pa:manifest></metadata>
<title>iPhone 14 Pro Max - front</title>
<style>.phone{--hi:#b7adc4;--base:#4b4356;--screen:#333333;--g0:var(--hi);--g1:color-mix(in srgb,var(--hi) 73%,var(--base) 27%);--g2:color-mix(in srgb,var(--hi) 42.5%,var(--base) 57.5%);--g3:color-mix(in srgb,var(--hi) 18%,var(--base) 82%);--g4:color-mix(in srgb,var(--hi) 70%,var(--base) 30%);--band:color-mix(in srgb,var(--base) 52%,#000)}.c-base{fill:var(--base)}.c-hi{fill:var(--hi)}.c-band{fill:var(--band)}.c-screen{fill:var(--screen)}.s0{stop-color:var(--g0)}.s1{stop-color:var(--g1)}.s2{stop-color:var(--g2)}.s3{stop-color:var(--g3)}.s4{stop-color:var(--g4)}</style>
<defs>
<linearGradient id="14promax-btn" x1="0" y1="0" x2="0" y2="1"><stop offset="0" class="s0"/><stop offset="0.1241" class="s1"/><stop offset="0.7649" class="s2"/><stop offset="0.9853" class="s3"/><stop offset="1" class="s4"/></linearGradient>
<linearGradient id="14promax-slit" gradientUnits="userSpaceOnUse" x1="0" y1="1.3528" x2="0" y2="2.1908"><stop offset="0" stop-color="#000"/><stop offset="1" stop-color="#212121"/></linearGradient>
<filter id="14promax-soft" x="-0.005" y="-0.003" width="1.01" height="1.006" color-interpolation-filters="sRGB"><feGaussianBlur stdDeviation="0.17727"/></filter>
<filter id="14promax-glint1" x="-0.19" y="-0.08" width="1.38" height="1.16" color-interpolation-filters="sRGB"><feGaussianBlur stdDeviation="0.030984"/></filter>
<filter id="14promax-glint2" x="-0.11" y="-0.08" width="1.22" height="1.16" color-interpolation-filters="sRGB"><feGaussianBlur stdDeviation="0.030984"/></filter>
</defs>
<g data-button="mute">
<path class="c-base" d="M 0.5686,39.0388 H 1.8234 C 1.9459,39.0388 2.0445,39.1374 2.0445,39.2599 V 46.2415 C 2.0445,46.3640 1.9459,46.4626 1.8234,46.4626 H 0.5686 C 0.4461,46.4626 0.3475,46.3640 0.3475,46.2415 V 39.2599 C 0.3475,39.1374 0.4461,39.0388 0.5686,39.0388 Z"/>
<path fill="url(#14promax-btn)" d="M 0.5561,39.1248 H 1.8359 C 1.9515,39.1248 2.0445,39.2178 2.0445,39.3334 V 46.1680 C 2.0445,46.2835 1.9515,46.3766 1.8359,46.3766 H 0.5561 C 0.4405,46.3766 0.3475,46.2835 0.3475,46.1680 V 39.3334 C 0.3475,39.2178 0.4405,39.1248 0.5561,39.1248 Z"/>
</g>
<g data-button="vol_up">
<path class="c-base" d="M 0.4156,53.5542 H 1.8234 C 1.9459,53.5542 2.0445,53.6528 2.0445,53.7753 V 67.2491 C 2.0445,67.3716 1.9459,67.4702 1.8234,67.4702 H 0.4156 C 0.2931,67.4702 0.1945,67.3716 0.1945,67.2491 V 53.7753 C 0.1945,53.6528 0.2931,53.5542 0.4156,53.5542 Z"/>
<path fill="url(#14promax-btn)" d="M 0.4031,53.6402 H 1.8359 C 1.9515,53.6402 2.0445,53.7332 2.0445,53.8488 V 67.1756 C 2.0445,67.2911 1.9515,67.3842 1.8359,67.3842 H 0.4031 C 0.2875,67.3842 0.1945,67.2911 0.1945,67.1756 V 53.8488 C 0.1945,53.7332 0.2875,53.6402 0.4031,53.6402 Z"/>
</g>
<g data-button="vol_down">
<path class="c-base" d="M 0.4156,72.3432 H 1.8234 C 1.9459,72.3432 2.0445,72.4418 2.0445,72.5643 V 86.0381 C 2.0445,86.1606 1.9459,86.2592 1.8234,86.2592 H 0.4156 C 0.2931,86.2592 0.1945,86.1606 0.1945,86.0381 V 72.5643 C 0.1945,72.4418 0.2931,72.3432 0.4156,72.3432 Z"/>
<path fill="url(#14promax-btn)" d="M 0.4031,72.4292 H 1.8359 C 1.9515,72.4292 2.0445,72.5222 2.0445,72.6378 V 85.9646 C 2.0445,86.0801 1.9515,86.1732 1.8359,86.1732 H 0.4031 C 0.2875,86.1732 0.1945,86.0801 0.1945,85.9646 V 72.6378 C 0.1945,72.5222 0.2875,72.4292 0.4031,72.4292 Z"/>
</g>
<g data-button="power">
<path class="c-base" d="M 102.5444,63.3372 H 103.9522 C 104.0747,63.3372 104.1733,63.4358 104.1733,63.5583 V 86.2181 C 104.1733,86.3406 104.0747,86.4392 103.9522,86.4392 H 102.5444 C 102.4219,86.4392 102.3233,86.3406 102.3233,86.2181 V 63.5583 C 102.3233,63.4358 102.4219,63.3372 102.5444,63.3372 Z"/>
<path fill="url(#14promax-btn)" d="M 102.5319,63.4232 H 103.9647 C 104.0802,63.4232 104.1733,63.5162 104.1733,63.6318 V 86.1446 C 104.1733,86.2601 104.0802,86.3532 103.9647,86.3532 H 102.5319 C 102.4163,86.3532 102.3233,86.2601 102.3233,86.1446 V 63.6318 C 102.3233,63.5162 102.4163,63.4232 102.5319,63.4232 Z"/>
</g>
<path id="14promax-frame" class="c-base" d="M 16.3748,0.1219 H 87.9930 C 96.6505,0.1219 103.6203,7.0917 103.6203,15.7492 V 197.5314 C 103.6203,206.1889 96.6505,213.1587 87.9930,213.1587 H 16.3748 C 7.7173,213.1587 0.7475,206.1889 0.7475,197.5314 V 15.7492 C 0.7475,7.0917 7.7173,0.1219 16.3748,0.1219 Z"/>
<path class="c-hi" filter="url(#14promax-soft)" d="M 16.6217,0.7306 H 87.7461 C 96.2566,0.7306 103.1081,7.5821 103.1081,16.0926 V 197.1880 C 103.1081,205.6985 96.2566,212.5500 87.7461,212.5500 H 16.6217 C 8.1112,212.5500 1.2597,205.6985 1.2597,197.1880 V 16.0926 C 1.2597,7.5821 8.1112,0.7306 16.6217,0.7306 Z"/>
<path class="c-band" fill-opacity="0.295364" d="M 82.4509,0.1219 V 20.5189 H 0.7475 v 1.296045 H 103.6203 V 20.5189 H 83.7466 V 0.1219 Z M 0.7475,191.4652 v 1.29605 H 20.6207 v 20.39719 h 1.29604 V 192.7612 H 103.6203 v -1.29605 z"/>
<path fill="#151515" d="M 16.8588,1.3528 H 87.5090 C 95.7288,1.3528 102.3463,7.9702 102.3463,16.1901 V 197.0905 C 102.3463,205.3103 95.7288,211.9278 87.5090,211.9278 H 16.8588 C 8.6389,211.9278 2.0215,205.3103 2.0215,197.0905 V 16.1901 C 2.0215,7.9702 8.6389,1.3528 16.8588,1.3528 Z"/>
<path fill="#000" d="M 17.7320,2.5699 H 86.6357 C 94.4886,2.5699 100.8106,8.8919 100.8106,16.7448 V 196.5358 C 100.8106,204.3887 94.4886,210.7107 86.6357,210.7107 H 17.7320 C 9.8791,210.7107 3.5571,204.3887 3.5571,196.5358 V 16.7448 C 3.5571,8.8919 9.8791,2.5699 17.7320,2.5699 Z"/>
<path id="14promax-screen" class="c-screen" data-role="screen" d="M 17.2299,4.3558 H 87.1379 C 94.0037,4.3558 99.5311,9.8832 99.5311,16.7490 V 196.5316 C 99.5311,203.3974 94.0037,208.9248 87.1379,208.9248 H 17.2299 C 10.3641,208.9248 4.8367,203.3974 4.8367,196.5316 V 16.7490 C 4.8367,9.8832 10.3641,4.3558 17.2299,4.3558 Z"/>
<g transform="translate(0.5899,0.5424)"><g transform="translate(14.095512,79.619208)"><g transform="translate(-209.66638,-79.560681)"><rect style="fill:#000" width="27.51193" height="8.0999603" x="233.40866" y="5.938086" ry="4.0499802"/><g transform="matrix(1.7055481,0,0,1.7055481,159.18391,-13.506151)"><circle style="fill:#0a0a0a" cx="57.21339" cy="13.775171" r="1.3121531"/><circle style="fill:#0c0e11" cx="57.21339" cy="13.775171" r="0.8093546"/><circle style="fill:#12171e" cx="57.21339" cy="13.775171" r="0.61666459"/><path style="fill:#425a72;fill-opacity:0.299338;fill-rule:evenodd;filter:url(#14promax-glint1)" d="m -47.128431,5.4302366 c -0.09735,0.010246 -0.235679,0.1588277 -0.245928,0.4508659 -0.01024,0.292038 0.117842,0.4508656 0.189571,0.4508656 0.07173,0 0.368889,-0.4252483 0.05635,-0.9017315 z" transform="matrix(0.75118992,0,0,0.75118992,92.191291,9.2834671)"/><path style="fill:#425a72;fill-opacity:0.299338;fill-rule:evenodd;filter:url(#14promax-glint2)" d="m -46.429328,5.3279691 c -0.153553,0.047247 -0.183083,0.2952938 -0.177178,0.4370348 0.0059,0.1417412 0.206706,0.5138116 0.448847,0.4311293 0.242142,-0.082682 0.283483,-0.3897882 0.183084,-0.5964939 -0.100401,-0.2067057 -0.283483,-0.3543525 -0.454753,-0.2716702 z" transform="matrix(0.75118992,0,0,0.75118992,92.191291,9.2834671)"/></g></g></g></g>
<path fill="url(#14promax-slit)" transform="translate(0.5899,0)" d="m 40.962412,1.3528288 c 1.08886,0 1.0607,0.259711 1.28614,0.554401 0.16443,0.214936 0.37624,0.283402 0.79319,0.283402 h 17.10402 c 0.41695,0 0.62823,-0.06847 0.79266,-0.283402 0.22545,-0.29469 0.19781,-0.554401 1.28667,-0.554401 z"/>
</svg>