<svg width="363" height="730" viewBox="0 0 363 730" fill="none" xmlns="http://www.w3.org/2000/svg">
<g clip-path="url(#clip0_1_2)">
<path d="M353.274 227.778H361.74C362.191 227.778 362.554 228.141 362.554 228.592V312.885C362.554 313.336 362.191 313.699 361.74 313.699H353.274C352.823 313.699 352.46 313.336 352.46 312.885V228.592C352.46 228.141 352.823 227.778 353.274 227.778Z" fill="#F4A9A5"/>
<path d="M353.274 228.837H361.74C362.191 228.837 362.554 229.2 362.554 229.651V312.152C362.554 312.603 362.191 312.966 361.74 312.966H353.274C352.823 312.966 352.46 312.603 352.46 312.152V229.651C352.46 229.2 352.823 228.837 353.274 228.837Z" fill="url(#paint0_linear_1_2)"/>
<path d="M1.25963 208.057H9.72607C10.1771 208.057 10.5401 208.42 10.5401 208.871V260.927C10.5401 261.378 10.1769 261.742 9.72607 261.742H1.25963C0.808618 261.742 0.445557 261.378 0.445557 260.927V208.871C0.445557 208.42 0.808769 208.057 1.25963 208.057Z" fill="#F4A9A5"/>
<path d="M1.25963 209.115H9.72607C10.1771 209.115 10.5401 209.478 10.5401 209.929V260.195C10.5401 260.646 10.1769 261.009 9.72607 261.009H1.25963C0.808618 261.009 0.445557 260.646 0.445557 260.195V209.929C0.445557 209.478 0.808769 209.115 1.25963 209.115Z" fill="url(#paint1_linear_1_2)"/>
<path d="M1.25963 278.094H9.72607C10.1771 278.094 10.5401 278.457 10.5401 278.908V330.964C10.5401 331.415 10.1769 331.778 9.72607 331.778H1.25963C0.808618 331.778 0.445557 331.415 0.445557 330.964V278.908C0.445557 278.457 0.808769 278.094 1.25963 278.094Z" fill="#F4A9A5"/>
<path d="M1.25963 279.152H9.72607C10.1771 279.152 10.5401 279.515 10.5401 279.966V330.232C10.5401 330.683 10.1769 331.046 9.72607 331.046H1.25963C0.808618 331.046 0.445557 330.683 0.445557 330.232V279.966C0.445557 279.515 0.808769 279.152 1.25963 279.152Z" fill="url(#paint2_linear_1_2)"/>
<path d="M9.7261 154.887H1.25964C0.810034 154.887 0.445557 155.251 0.445557 155.701V181.968C0.445557 182.418 0.810034 182.783 1.25964 182.783H9.7261C10.1757 182.783 10.5402 182.418 10.5402 181.968V155.701C10.5402 155.251 10.1757 154.887 9.7261 154.887Z" fill="#F4A9A5"/>
<path d="M9.7261 155.945H1.25964C0.810034 155.945 0.445557 156.309 0.445557 156.759V181.236C0.445557 181.685 0.810034 182.05 1.25964 182.05H9.7261C10.1757 182.05 10.5402 181.685 10.5402 181.236V156.759C10.5402 156.309 10.1757 155.945 9.7261 155.945Z" fill="url(#paint3_linear_1_2)"/>
<path d="M303.667 0.83728H59.3331C28.6031 0.83728 3.69162 25.7488 3.69162 56.4787V673.521C3.69162 704.251 28.6031 729.163 59.3331 729.163H303.667C334.397 729.163 359.308 704.251 359.308 673.521V56.4787C359.308 25.7488 334.397 0.83728 303.667 0.83728Z" fill="#FCE7E6" stroke="#F6B5B2" stroke-width="0.999999" stroke-linecap="round" stroke-linejoin="round"/>
<mask id="mask0_1_2" style="mask-type:luminance" maskUnits="userSpaceOnUse" x="3" y="0" width="357" height="730">
<path d="M303.667 0.83728H59.3331C28.6032 0.83728 3.69165 25.7488 3.69165 56.4787V673.521C3.69165 704.251 28.6032 729.163 59.3331 729.163H303.667C334.397 729.163 359.308 704.251 359.308 673.521V56.4787C359.308 25.7488 334.397 0.83728 303.667 0.83728Z" fill="white"/>
</mask>
<g mask="url(#mask0_1_2)">
<g filter="url(#filter0_f_1_2)">
<path d="M59.3301 2.78909C29.5513 2.78909 5.64064 26.6998 5.64064 56.4785V673.523C5.64064 703.302 29.5513 727.211 59.3301 727.211H303.67C333.449 727.211 357.359 703.302 357.359 673.523V56.4785C357.359 26.6998 333.449 2.78909 303.67 2.78909H59.3301Z" fill="#F8CAC8"/>
</g>
</g>
<path d="M279.574 0.337891V12.2988H287.711V0.337891H279.574ZM3.19139 73V81.1367H359.809V73H3.19139ZM3.19139 650.133V658.267H359.809V650.133H3.19139ZM75.289 719.363V729.662H83.4258V719.363H75.289Z" fill="#F7BEBB"/>
<path d="M213.125 5.17578H149.875V10.2139H213.125V5.17578Z" fill="black"/>
<path d="M60.2695 5.42578C31.2103 5.42578 7.81642 28.8197 7.81642 57.8789V672.121C7.81642 701.18 31.2103 724.574 60.2695 724.574H302.73C331.79 724.574 355.184 701.18 355.184 672.121V57.8789C355.184 28.8197 331.79 5.42578 302.73 5.42578H213.125C212.525 5.42559 211.949 5.66503 211.518 6.09339C211.087 6.52175 210.835 7.10539 210.816 7.7207V7.73438H152.184V7.7207C152.165 7.10539 151.913 6.52175 151.482 6.09339C151.051 5.66503 150.475 5.42559 149.875 5.42578H60.2695Z" fill="black" stroke="#434343" stroke-width="0.500001"/>
<path d="M134.582 32.3176C137.74 32.3176 140.3 29.7575 140.3 26.5995C140.3 23.4415 137.74 20.8814 134.582 20.8814C131.424 20.8814 128.864 23.4415 128.864 26.5995C128.864 29.7575 131.424 32.3176 134.582 32.3176Z" fill="#161616"/>
<path d="M134.582 30.1265C136.53 30.1265 138.109 28.5474 138.109 26.5995C138.109 24.6516 136.53 23.0725 134.582 23.0725C132.634 23.0725 131.055 24.6516 131.055 26.5995C131.055 28.5474 132.634 30.1265 134.582 30.1265Z" fill="#0A0D13"/>
<path d="M134.582 29.2868C136.066 29.2868 137.269 28.0837 137.269 26.5995C137.269 25.1154 136.066 23.9122 134.582 23.9122C133.098 23.9122 131.895 25.1154 131.895 26.5995C131.895 28.0837 133.098 29.2868 134.582 29.2868Z" fill="#091427"/>
<g filter="url(#filter1_f_1_2)">
<path fill-rule="evenodd" clip-rule="evenodd" d="M132.732 24.8016C132.413 24.8352 131.961 25.3216 131.927 26.2776C131.893 27.2335 132.313 27.7535 132.548 27.7535C132.782 27.7535 133.755 26.3614 132.732 24.8016Z" fill="#235A91" fill-opacity="0.556075"/>
</g>
<g filter="url(#filter2_f_1_2)">
<path fill-rule="evenodd" clip-rule="evenodd" d="M135.021 24.4669C134.518 24.6215 134.421 25.4335 134.441 25.8975C134.46 26.3615 135.117 27.5795 135.91 27.3088C136.703 27.0382 136.838 26.0328 136.509 25.3562C136.181 24.6795 135.581 24.1962 135.021 24.4669Z" fill="#235A91" fill-opacity="0.556075"/>
</g>
<path d="M208.509 5.42566H154.491C153.216 5.42566 152.182 6.45931 152.182 7.73439V10.208C152.182 11.4831 153.216 12.5168 154.491 12.5168H208.509C209.784 12.5168 210.818 11.4831 210.818 10.208V7.73439C210.818 6.45931 209.784 5.42566 208.509 5.42566Z" fill="black" stroke="#1A1A1A" stroke-width="0.500001" stroke-linecap="round" stroke-linejoin="round"/>
<path d="M155.866 6.87711C154.706 6.87711 153.772 7.81072 153.772 8.97095C153.772 10.1312 154.706 11.0648 155.866 11.0648H207.134C208.294 11.0648 209.228 10.1312 209.228 8.97095C209.228 7.81072 208.294 6.87711 207.134 6.87711H155.866Z" stroke="#292929" stroke-width="0.153809" stroke-linecap="round"/>
<mask id="mask1_1_2" style="mask-type:luminance" maskUnits="userSpaceOnUse" x="153" y="6" width="57" height="6">
<path d="M155.867 6.79724C154.666 6.79724 153.697 7.76603 153.697 8.96752C153.697 10.169 154.666 11.1452 155.867 11.1452H207.135C208.336 11.1452 209.305 10.169 209.305 8.96752C209.305 7.76603 208.336 6.79724 207.135 6.79724H155.867ZM155.867 6.95226H207.135C208.254 6.95226 209.15 7.84855 209.15 8.96752C209.15 10.0865 208.254 10.9902 207.135 10.9902H155.867C154.748 10.9902 153.852 10.0865 153.852 8.96752C153.852 7.84855 154.748 6.95226 155.867 6.95226Z" fill="white"/>
</mask>
<g mask="url(#mask1_1_2)">
<g filter="url(#filter3_f_1_2)">
<path d="M209.228 8.97095C209.228 9.33966 209.015 9.63856 208.752 9.63856C208.488 9.63856 208.275 9.33966 208.275 8.97095C208.275 8.60224 208.488 8.30334 208.752 8.30334C209.015 8.30334 209.228 8.60224 209.228 8.97095Z" fill="white"/>
<path d="M153.772 8.97095C153.772 9.33966 153.985 9.63856 154.248 9.63856C154.512 9.63856 154.725 9.33966 154.725 8.97095C154.725 8.60224 154.512 8.30334 154.248 8.30334C153.985 8.30334 153.772 8.60224 153.772 8.97095Z" fill="white"/>
</g>
</g>
<path d="M58.8711 16.9668C37.8341 16.9661 20.7797 34.0196 20.7793 55.0566V674.941C20.7786 695.979 37.8333 713.034 58.8711 713.033H181.5H304.129C325.167 713.034 342.221 695.979 342.221 674.941V55.0566C342.22 34.0196 325.166 16.9661 304.129 16.9668H255.234C250.783 16.9668 248.48 17.4271 248.48 24.4883C248.48 31.5495 244.105 43.4473 228.447 43.4473H217.293H145.705H134.553C118.895 43.4473 114.52 31.5495 114.52 24.4883C114.52 17.4271 112.217 16.9668 107.766 16.9668H58.8711Z" fill="url(#paint4_linear_1_2)"/>
</g>
<defs>
<filter id="filter0_f_1_2" x="4.77973" y="1.92818" width="353.441" height="726.144" filterUnits="userSpaceOnUse" color-interpolation-filters="sRGB">
<feFlood flood-opacity="0" result="BackgroundImageFix"/>
<feBlend mode="normal" in="SourceGraphic" in2="BackgroundImageFix" result="shape"/>
<feGaussianBlur stdDeviation="0.430456" result="effect1_foregroundBlur_1_2"/>
</filter>
<filter id="filter1_f_1_2" x="131.722" y="24.5988" width="1.67172" height="3.35755" filterUnits="userSpaceOnUse" color-interpolation-filters="sRGB">
<feFlood flood-opacity="0" result="BackgroundImageFix"/>
<feBlend mode="normal" in="SourceGraphic" in2="BackgroundImageFix" result="shape"/>
<feGaussianBlur stdDeviation="0.101426" result="effect1_foregroundBlur_1_2"/>
</filter>
<filter id="filter2_f_1_2" x="134.235" y="24.1875" width="2.64345" height="3.36295" filterUnits="userSpaceOnUse" color-interpolation-filters="sRGB">
<feFlood flood-opacity="0" result="BackgroundImageFix"/>
<feBlend mode="normal" in="SourceGraphic" in2="BackgroundImageFix" result="shape"/>
<feGaussianBlur stdDeviation="0.101426" result="effect1_foregroundBlur_1_2"/>
</filter>
<filter id="filter3_f_1_2" x="150.261" y="4.79274" width="62.4773" height="8.35641" filterUnits="userSpaceOnUse" color-interpolation-filters="sRGB">
<feFlood flood-opacity="0" result="BackgroundImageFix"/>
<feBlend mode="normal" in="SourceGraphic" in2="BackgroundImageFix" result="shape"/>
<feGaussianBlur stdDeviation="1.7553" result="effect1_foregroundBlur_1_2"/>
</filter>
<linearGradient id="paint0_linear_1_2" x1="362.554" y1="228.836" x2="362.554" y2="312.966" gradientUnits="userSpaceOnUse">
<stop stop-color="#FDECEB"/>
<stop offset="0.136992" stop-color="#FADBD9"/>
<stop offset="0.842006" stop-color="#FADBD9"/>
<stop offset="1" stop-color="#FDECEB"/>
</linearGradient>
<linearGradient id="paint1_linear_1_2" x1="10.5401" y1="209.115" x2="10.5401" y2="261.009" gradientUnits="userSpaceOnUse">
<stop stop-color="#FDECEB"/>
<stop offset="0.136992" stop-color="#FADBD9"/>
<stop offset="0.842006" stop-color="#FADBD9"/>
<stop offset="1" stop-color="#FDECEB"/>
</linearGradient>
<linearGradient id="paint2_linear_1_2" x1="10.5401" y1="279.152" x2="10.5401" y2="331.046" gradientUnits="userSpaceOnUse">
<stop stop-color="#FDECEB"/>
<stop offset="0.136992" stop-color="#FADBD9"/>
<stop offset="0.842006" stop-color="#FADBD9"/>
<stop offset="1" stop-color="#FDECEB"/>
</linearGradient>
<linearGradient id="paint3_linear_1_2" x1="10.5402" y1="155.945" x2="10.5402" y2="182.05" gradientUnits="userSpaceOnUse">
<stop stop-color="#FDECEB"/>
<stop offset="0.136992" stop-color="#FADBD9"/>
<stop offset="0.842006" stop-color="#FADBD9"/>
<stop offset="1" stop-color="#FDECEB"/>
</linearGradient>
<linearGradient id="paint4_linear_1_2" x1="245.872" y1="5.42566" x2="245.872" y2="730.956" gradientUnits="userSpaceOnUse">
<stop stop-color="#404040"/>
<stop offset="1" stop-color="#262626"/>
</linearGradient>
<clipPath id="clip0_1_2">
<rect width="363" height="730" fill="white"/>
</clipPath>
</defs>
</svg>
